<svg xmlns="http://www.w3.org/2000/svg" width="512" height="512" viewBox="0 0 512 512">
  <rect width="512" height="512" rx="80" fill="#0c0b0a"/>
  <g transform="translate(128, 108) scale(10.67)">
    <path d="M15 21v-8a1 1 0 0 0-1-1h-4a1 1 0 0 0-1 1v8" fill="none" stroke="#c8943e" stroke-width="2" stroke-linecap="round" stroke-linejoin="round"/>
    <path d="M3 10a2 2 0 0 1 .709-1.528l7-5.999a2 2 0 0 1 2.582 0l7 5.999A2 2 0 0 1 21 10v9a2 2 0 0 1-2 2H5a2 2 0 0 1-2-2z" fill="none" stroke="#c8943e" stroke-width="2" stroke-linecap="round" stroke-linejoin="round"/>
  </g>
</svg>
